<svg id="Layer_1" data-name="Layer 1" xmlns="http://www.w3.org/2000/svg" viewBox="0 0 350 457.34"><path d="M0,307.34c0,1.42,0,2.9.07,4.43s.12,3.11.21,4.74.23,3.31.39,5,.35,3.48.57,5.28.49,3.64.79,5.52.63,3.77,1,5.71.8,3.89,1.26,5.87,1,4,1.53,6S7,354,7.65,356.05s1.37,4.13,2.13,6.2,1.58,4.16,2.46,6.25,1.81,4.17,2.81,6.26,2.05,4.17,3.17,6.24,2.31,4.15,3.57,6.21,2.58,4.1,4,6.13,2.86,4,4.4,6,3.16,3.95,4.85,5.89,3.47,3.86,5.33,5.74,3.79,3.73,5.81,5.54,4.13,3.58,6.32,5.31,4.48,3.43,6.85,5.07,4.84,3.24,7.4,4.78,5.22,3,8,4.47,5.61,2.81,8.56,4.12,6,2.57,9.17,3.75,6.43,2.31,9.8,3.35,6.85,2,10.45,2.92,7.29,1.71,11.11,2.45,7.76,1.39,11.81,2,8.22,1,12.52,1.44,8.7.68,13.24.88,9.21.3,14,.3,9.48-.1,14-.31,9-.52,13.27-.93,8.47-.91,12.53-1.51,8-1.28,11.82-2,7.52-1.63,11.12-2.56,7.07-2,10.44-3.05,6.63-2.25,9.79-3.49,6.2-2.53,9.15-3.9,5.79-2.8,8.54-4.29,5.39-3,7.94-4.63,5-3.25,7.37-4.95,4.64-3.44,6.82-5.23,4.28-3.61,6.29-5.48,3.93-3.76,5.77-5.69,3.6-3.89,5.28-5.88,3.29-4,4.82-6,3-4.08,4.36-6.14,2.69-4.15,3.93-6.23,2.41-4.19,3.52-6.28,2.15-4.21,3.13-6.3,1.9-4.2,2.77-6.29,1.66-4.17,2.41-6.24,1.45-4.12,2.09-6.16,1.24-4.05,1.78-6,1.05-4,1.5-5.9.86-3.85,1.23-5.72.69-3.71,1-5.51.54-3.55.76-5.26.4-3.38.56-5,.27-3.17.37-4.67.16-2.95.21-4.33.06-2.7.06-4V0H0"/></svg>