<svg xmlns="http://www.w3.org/2000/svg" viewBox="0 0 350 445"><defs><style>.cls-1{isolation:isolate;}.cls-2{fill:#c33;}.cls-3{mix-blend-mode:multiply;opacity:0.25;}.cls-4,.cls-5,.cls-8,.cls-9{fill:none;stroke-width:4px;}.cls-4,.cls-5,.cls-6{stroke:#000;}.cls-10,.cls-4,.cls-5,.cls-6,.cls-8,.cls-9{stroke-linecap:round;stroke-miterlimit:10;}.cls-5,.cls-9{stroke-dasharray:20.1 15.07;}.cls-10,.cls-6{stroke-width:5px;}.cls-10,.cls-7{fill:#fff;}.cls-10,.cls-8,.cls-9{stroke:#fff;}.cls-11{fill:#9cc;}.cls-12{fill:#d36127;}.cls-13{fill:#e5f4f8;}</style></defs><g class="cls-1"><g id="Shield"><path class="cls-2" d="M75,325c0,45.4,22,150,175.36,150C404.11,475,425,365.05,425,325c0-58.77,0-295,0-295H75" transform="translate(-75 -30)"/></g><g id="Map"><g class="cls-3"><circle id="Start" cx="81.09" cy="216.86" r="8.64"/><path class="cls-4" d="M221,64.21a82.06,82.06,0,0,0-9.92,1.24" transform="translate(-75 -30)"/><path class="cls-5" d="M196.44,69.06c-32.75,10.44-82.82,43.11-48,144.77,2.93,11-11.11,23.74-19,18.77-12.77-5.62,8.12-56.22,88-62.17,79.15,2,125.79,24,170,141.44-1,69.55-38.3,75.07-72,88.85S270.4,410.43,262,422.17s20.23,17.87,13.59-3.06c-5.39-17-79.68-118.67-107.52-156.43" transform="translate(-75 -30)"/><path class="cls-4" d="M163.61,256.6c-3.77-5.1-6-8-6-8" transform="translate(-75 -30)"/><line class="cls-6" x1="174.23" y1="13.62" x2="157.89" y2="51.06"/><line class="cls-6" x1="148.02" y1="20.04" x2="182.68" y2="39.19"/></g><circle id="Start-2" data-name="Start" class="cls-7" cx="78.09" cy="213.86" r="8.64"/><g id="Road"><path class="cls-8" d="M218,61.21a82.06,82.06,0,0,0-9.92,1.24" transform="translate(-75 -30)"/><path class="cls-9" d="M193.44,66.06c-32.75,10.44-82.82,43.11-48,144.77,2.93,11-11.11,23.74-19,18.77-12.77-5.62,8.12-56.22,88-62.17,79.15,2,125.79,24,170,141.44-1,69.55-38.3,75.07-72,88.85S267.4,407.43,259,419.17s20.23,17.87,13.59-3.06c-5.39-17-79.68-118.67-107.52-156.43" transform="translate(-75 -30)"/><path class="cls-8" d="M160.61,253.6c-3.77-5.1-6-8-6-8" transform="translate(-75 -30)"/></g><line class="cls-10" x1="171.23" y1="10.62" x2="154.89" y2="48.06"/><line class="cls-10" x1="145.02" y1="17.04" x2="179.68" y2="36.19"/></g><g id="Sword"><g class="cls-3"><path id="Pommel" d="M349.56,64.85S331.86,54,326.07,67.23s7.15,13.62,11.75,16,14.13,6.13,19.23-4.08S349.56,64.85,349.56,64.85Z" transform="translate(-75 -30)"/><polygon id="Grip" points="248.34 109.46 272.86 55.92 251.41 47.11 225.22 96.99 248.34 109.46"/><path id="Guard" d="M303.27,146.89s-35.07-17-31-23.83,15.32-4.69,41.53,9.54c8.38,4.08,31.32,11.57,34,23.49C343.1,167.66,303.27,146.89,303.27,146.89Z" transform="translate(-75 -30)"/><path id="Blade" d="M322,155.4s-59,111.3-78.64,148.43c-27.06,51.4-43.4,81.56-63.32,79.49-12.51-12.51,2.38-38.64,28.6-90.38s78.64-155.58,78.64-155.58Z" transform="translate(-75 -30)"/></g><path id="Pommel-2" data-name="Pommel" class="cls-11" d="M344.56,59.85S326.86,49,321.07,62.23s7.15,13.62,11.75,16,14.13,6.13,19.23-4.08S344.56,59.85,344.56,59.85Z" transform="translate(-75 -30)"/><polygon id="Grip-2" data-name="Grip" class="cls-12" points="243.34 104.46 267.86 50.92 246.41 42.11 220.22 91.99 243.34 104.46"/><path id="Guard-2" data-name="Guard" class="cls-11" d="M298.27,141.89s-35.07-17-31-23.83,15.32-4.69,41.53,9.54c8.38,4.08,31.32,11.57,34,23.49C338.1,162.66,298.27,141.89,298.27,141.89Z" transform="translate(-75 -30)"/><path id="Blade-2" data-name="Blade" class="cls-13" d="M317,150.4s-59,111.3-78.64,148.43c-27.06,51.4-43.4,81.56-63.32,79.49-12.51-12.51,2.38-38.64,28.6-90.38s78.64-155.58,78.64-155.58Z" transform="translate(-75 -30)"/></g></g></svg>